<mxfile host="Electron" modified="2024-05-10T11:41:00.818Z" agent="Mozilla/5.0 (Windows NT 10.0; Win64; x64) AppleWebKit/537.36 (KHTML, like Gecko) draw.io/24.2.5 Chrome/120.0.6099.109 Electron/28.1.0 Safari/537.36" etag="rcElUzLq4E23RG1MF43T" version="24.2.5" type="device">
  <diagram name="Página-1" id="qYyNNrF9cRtU7czbcbkd">
    <mxGraphModel dx="1195" dy="697" grid="1" gridSize="10" guides="1" tooltips="1" connect="1" arrows="1" fold="1" page="1" pageScale="1" pageWidth="827" pageHeight="1169" math="0" shadow="0">
      <root>
        <mxCell id="0" />
        <mxCell id="1" parent="0" />
        <mxCell id="UQEcUWz7L7YmmeY8aUTK-2" value="" style="triangle;whiteSpace=wrap;html=1;" vertex="1" parent="1">
          <mxGeometry x="240" y="300" width="50" height="60" as="geometry" />
        </mxCell>
        <mxCell id="UQEcUWz7L7YmmeY8aUTK-3" value="" style="ellipse;whiteSpace=wrap;html=1;aspect=fixed;" vertex="1" parent="1">
          <mxGeometry x="290" y="325" width="10" height="10" as="geometry" />
        </mxCell>
        <mxCell id="UQEcUWz7L7YmmeY8aUTK-5" value="" style="endArrow=none;html=1;rounded=0;exitX=1;exitY=0.5;exitDx=0;exitDy=0;" edge="1" parent="1" source="UQEcUWz7L7YmmeY8aUTK-3">
          <mxGeometry width="50" height="50" relative="1" as="geometry">
            <mxPoint x="320" y="420" as="sourcePoint" />
            <mxPoint x="390" y="330" as="targetPoint" />
          </mxGeometry>
        </mxCell>
        <mxCell id="UQEcUWz7L7YmmeY8aUTK-6" value="" style="triangle;whiteSpace=wrap;html=1;" vertex="1" parent="1">
          <mxGeometry x="390" y="300" width="50" height="60" as="geometry" />
        </mxCell>
        <mxCell id="UQEcUWz7L7YmmeY8aUTK-7" value="" style="ellipse;whiteSpace=wrap;html=1;aspect=fixed;" vertex="1" parent="1">
          <mxGeometry x="440" y="325" width="10" height="10" as="geometry" />
        </mxCell>
        <mxCell id="UQEcUWz7L7YmmeY8aUTK-8" value="" style="endArrow=none;html=1;rounded=0;exitX=1;exitY=0.5;exitDx=0;exitDy=0;" edge="1" parent="1" source="UQEcUWz7L7YmmeY8aUTK-7">
          <mxGeometry width="50" height="50" relative="1" as="geometry">
            <mxPoint x="470" y="420" as="sourcePoint" />
            <mxPoint x="540" y="330" as="targetPoint" />
          </mxGeometry>
        </mxCell>
        <mxCell id="UQEcUWz7L7YmmeY8aUTK-9" value="" style="triangle;whiteSpace=wrap;html=1;" vertex="1" parent="1">
          <mxGeometry x="540" y="300" width="50" height="60" as="geometry" />
        </mxCell>
        <mxCell id="UQEcUWz7L7YmmeY8aUTK-10" value="" style="ellipse;whiteSpace=wrap;html=1;aspect=fixed;" vertex="1" parent="1">
          <mxGeometry x="590" y="325" width="10" height="10" as="geometry" />
        </mxCell>
        <mxCell id="UQEcUWz7L7YmmeY8aUTK-11" value="" style="endArrow=none;html=1;rounded=0;exitX=1;exitY=0.5;exitDx=0;exitDy=0;" edge="1" parent="1" source="UQEcUWz7L7YmmeY8aUTK-10">
          <mxGeometry width="50" height="50" relative="1" as="geometry">
            <mxPoint x="620" y="420" as="sourcePoint" />
            <mxPoint x="650" y="330" as="targetPoint" />
          </mxGeometry>
        </mxCell>
        <mxCell id="UQEcUWz7L7YmmeY8aUTK-12" value="" style="endArrow=none;dashed=1;html=1;dashPattern=1 3;strokeWidth=2;rounded=0;" edge="1" parent="1">
          <mxGeometry width="50" height="50" relative="1" as="geometry">
            <mxPoint x="650" y="330" as="sourcePoint" />
            <mxPoint x="700" y="330" as="targetPoint" />
          </mxGeometry>
        </mxCell>
        <mxCell id="UQEcUWz7L7YmmeY8aUTK-13" value="" style="triangle;whiteSpace=wrap;html=1;" vertex="1" parent="1">
          <mxGeometry x="750" y="300" width="50" height="60" as="geometry" />
        </mxCell>
        <mxCell id="UQEcUWz7L7YmmeY8aUTK-14" value="" style="ellipse;whiteSpace=wrap;html=1;aspect=fixed;" vertex="1" parent="1">
          <mxGeometry x="800" y="325" width="10" height="10" as="geometry" />
        </mxCell>
        <mxCell id="UQEcUWz7L7YmmeY8aUTK-15" value="" style="endArrow=none;html=1;rounded=0;exitX=1;exitY=0.5;exitDx=0;exitDy=0;entryX=0;entryY=0.5;entryDx=0;entryDy=0;" edge="1" parent="1" source="UQEcUWz7L7YmmeY8aUTK-14" target="UQEcUWz7L7YmmeY8aUTK-2">
          <mxGeometry width="50" height="50" relative="1" as="geometry">
            <mxPoint x="830" y="420" as="sourcePoint" />
            <mxPoint x="120" y="370" as="targetPoint" />
            <Array as="points">
              <mxPoint x="860" y="330" />
              <mxPoint x="860" y="400" />
              <mxPoint x="180" y="400" />
              <mxPoint x="180" y="330" />
            </Array>
          </mxGeometry>
        </mxCell>
        <mxCell id="UQEcUWz7L7YmmeY8aUTK-16" value="" style="endArrow=none;html=1;rounded=0;exitX=1;exitY=0.5;exitDx=0;exitDy=0;" edge="1" parent="1">
          <mxGeometry width="50" height="50" relative="1" as="geometry">
            <mxPoint x="700" y="329.71" as="sourcePoint" />
            <mxPoint x="750" y="329.71" as="targetPoint" />
          </mxGeometry>
        </mxCell>
        <mxCell id="UQEcUWz7L7YmmeY8aUTK-18" value="&lt;font style=&quot;font-size: 22px;&quot;&gt;ϕ&lt;/font&gt;0" style="text;html=1;align=center;verticalAlign=middle;whiteSpace=wrap;rounded=0;" vertex="1" parent="1">
          <mxGeometry x="310" y="290" width="60" height="30" as="geometry" />
        </mxCell>
        <mxCell id="UQEcUWz7L7YmmeY8aUTK-19" value="&lt;font style=&quot;font-size: 22px;&quot;&gt;ϕ&lt;/font&gt;1" style="text;html=1;align=center;verticalAlign=middle;whiteSpace=wrap;rounded=0;" vertex="1" parent="1">
          <mxGeometry x="470" y="290" width="60" height="30" as="geometry" />
        </mxCell>
        <mxCell id="UQEcUWz7L7YmmeY8aUTK-20" value="&lt;font style=&quot;font-size: 22px;&quot;&gt;ϕ&lt;/font&gt;2" style="text;html=1;align=center;verticalAlign=middle;whiteSpace=wrap;rounded=0;" vertex="1" parent="1">
          <mxGeometry x="600" y="290" width="60" height="30" as="geometry" />
        </mxCell>
        <mxCell id="UQEcUWz7L7YmmeY8aUTK-21" value="&lt;font style=&quot;font-size: 22px;&quot;&gt;ϕ&lt;/font&gt;14" style="text;html=1;align=center;verticalAlign=middle;whiteSpace=wrap;rounded=0;" vertex="1" parent="1">
          <mxGeometry x="690" y="290" width="60" height="30" as="geometry" />
        </mxCell>
        <mxCell id="UQEcUWz7L7YmmeY8aUTK-22" value="&lt;font style=&quot;font-size: 22px;&quot;&gt;ϕ&lt;/font&gt;15" style="text;html=1;align=center;verticalAlign=middle;whiteSpace=wrap;rounded=0;" vertex="1" parent="1">
          <mxGeometry x="810" y="290" width="60" height="30" as="geometry" />
        </mxCell>
      </root>
    </mxGraphModel>
  </diagram>
</mxfile>
